<?xml version="1.0" encoding="UTF-8"?><svg xmlns="http://www.w3.org/2000/svg" xmlns:xlink="http://www.w3.org/1999/xlink" fill-opacity="1" color-rendering="auto" color-interpolation="auto" text-rendering="auto" stroke="black" stroke-linecap="square" width="823" stroke-miterlimit="10" shape-rendering="auto" stroke-opacity="1" fill="black" stroke-dasharray="none" font-weight="normal" stroke-width="1" height="340" font-family="'Dialog'" font-style="normal" stroke-linejoin="miter" font-size="12px" stroke-dashoffset="0" image-rendering="auto">
  <!--Generated by ySVG 2.5-->
  <defs id="genericDefs"/>
  <g>
    <defs id="defs1">
      <linearGradient x1="418" gradientUnits="userSpaceOnUse" x2="498" y1="262.5" y2="302.5" id="linearGradient1" spreadMethod="reflect">
        <stop stop-opacity="1" stop-color="rgb(232,238,247)" offset="0%"/>
        <stop stop-opacity="1" stop-color="rgb(183,201,227)" offset="100%"/>
      </linearGradient>
      <linearGradient x1="418" gradientUnits="userSpaceOnUse" x2="498" y1="97.5" y2="137.5" id="linearGradient2" spreadMethod="reflect">
        <stop stop-opacity="1" stop-color="rgb(232,238,247)" offset="0%"/>
        <stop stop-opacity="1" stop-color="rgb(183,201,227)" offset="100%"/>
      </linearGradient>
      <linearGradient x1="163" gradientUnits="userSpaceOnUse" x2="243" y1="262.5" y2="302.5" id="linearGradient3" spreadMethod="reflect">
        <stop stop-opacity="1" stop-color="rgb(232,238,247)" offset="0%"/>
        <stop stop-opacity="1" stop-color="rgb(183,201,227)" offset="100%"/>
      </linearGradient>
      <clipPath clipPathUnits="userSpaceOnUse" id="clipPath1">
        <path d="M0 0 L823 0 L823 340 L0 340 L0 0 Z"/>
      </clipPath>
      <clipPath clipPathUnits="userSpaceOnUse" id="clipPath2">
        <path d="M-15 -15 L808 -15 L808 325 L-15 325 L-15 -15 Z"/>
      </clipPath>
    </defs>
    <g fill="rgb(255,204,0)" text-rendering="geometricPrecision" shape-rendering="geometricPrecision" transform="matrix(1,0,0,1,15,15)" stroke="rgb(255,204,0)">
      <rect x="0" width="136" height="55" y="255" clip-path="url(#clipPath2)" stroke="none"/>
    </g>
    <g text-rendering="geometricPrecision" stroke-miterlimit="1.45" shape-rendering="geometricPrecision" transform="matrix(1,0,0,1,15,15)" stroke-linecap="butt">
      <rect fill="none" x="0" width="136" height="55" y="255" clip-path="url(#clipPath2)"/>
      <text x="5.3809" xml:space="preserve" y="286.6543" clip-path="url(#clipPath2)" font-family="sans-serif" stroke="none">Despido injustificado</text>
    </g>
    <g fill="rgb(255,204,0)" text-rendering="geometricPrecision" shape-rendering="geometricPrecision" transform="matrix(1,0,0,1,15,15)" stroke="rgb(255,204,0)">
      <rect x="275" width="96" height="34" y="265.5" clip-path="url(#clipPath2)" stroke="none"/>
    </g>
    <g text-rendering="geometricPrecision" stroke-miterlimit="1.45" shape-rendering="geometricPrecision" transform="matrix(1,0,0,1,15,15)" stroke-linecap="butt">
      <rect fill="none" x="275" width="96" height="34" y="265.5" clip-path="url(#clipPath2)"/>
      <text x="279.0605" xml:space="preserve" y="279.6699" clip-path="url(#clipPath2)" font-family="sans-serif" stroke="none">Fue despedida</text>
      <text x="283.4873" xml:space="preserve" y="293.6387" clip-path="url(#clipPath2)" font-family="sans-serif" stroke="none">Ingreso 1960</text>
    </g>
    <g fill="rgb(255,204,0)" text-rendering="geometricPrecision" shape-rendering="geometricPrecision" transform="matrix(1,0,0,1,15,15)" stroke="rgb(255,204,0)">
      <rect x="573" y="263" clip-path="url(#clipPath2)" width="190" rx="4" ry="4" height="39" stroke="none"/>
    </g>
    <g text-rendering="geometricPrecision" stroke-miterlimit="1.45" shape-rendering="geometricPrecision" transform="matrix(1,0,0,1,15,15)" stroke-linecap="butt">
      <rect x="573" y="263" clip-path="url(#clipPath2)" fill="none" width="190" rx="4" ry="4" height="39"/>
      <text x="589.0566" xml:space="preserve" y="279.6699" clip-path="url(#clipPath2)" font-family="sans-serif" stroke="none">T1 declara "fue despedida</text>
      <text x="625.8301" xml:space="preserve" y="293.6387" clip-path="url(#clipPath2)" font-family="sans-serif" stroke="none">ingresó 1960"</text>
    </g>
    <g fill="rgb(255,204,0)" text-rendering="geometricPrecision" shape-rendering="geometricPrecision" transform="matrix(1,0,0,1,15,15)" stroke="rgb(255,204,0)">
      <rect x="543.5" y="165" clip-path="url(#clipPath2)" width="249" rx="4" ry="4" height="55" stroke="none"/>
    </g>
    <g text-rendering="geometricPrecision" stroke-miterlimit="1.45" shape-rendering="geometricPrecision" transform="matrix(1,0,0,1,15,15)" stroke-linecap="butt">
      <rect x="543.5" y="165" clip-path="url(#clipPath2)" fill="none" width="249" rx="4" ry="4" height="55"/>
      <text x="579.2949" xml:space="preserve" y="182.6855" clip-path="url(#clipPath2)" font-family="sans-serif" stroke="none">Las declaraciones de testigos</text>
      <text x="568.8623" xml:space="preserve" y="196.6543" clip-path="url(#clipPath2)" font-family="sans-serif" stroke="none">sin sesgos, y respecto de hechos</text>
      <text x="548.6621" xml:space="preserve" y="210.623" clip-path="url(#clipPath2)" font-family="sans-serif" stroke="none">de periodos prolongados son confiables</text>
    </g>
    <g fill="rgb(255,204,0)" text-rendering="geometricPrecision" shape-rendering="geometricPrecision" transform="matrix(1,0,0,1,15,15)" stroke="rgb(255,204,0)">
      <rect x="582.5" y="98" clip-path="url(#clipPath2)" width="171" rx="4" ry="4" height="39" stroke="none"/>
    </g>
    <g text-rendering="geometricPrecision" stroke-miterlimit="1.45" shape-rendering="geometricPrecision" transform="matrix(1,0,0,1,15,15)" stroke-linecap="butt">
      <rect x="582.5" y="98" clip-path="url(#clipPath2)" fill="none" width="171" rx="4" ry="4" height="39"/>
      <text x="589.0566" xml:space="preserve" y="114.6699" clip-path="url(#clipPath2)" font-family="sans-serif" stroke="none">T2 declara "fue despedida</text>
      <text x="625.8301" xml:space="preserve" y="128.6387" clip-path="url(#clipPath2)" font-family="sans-serif" stroke="none">ingresó 1960"</text>
    </g>
    <g fill="rgb(255,204,0)" text-rendering="geometricPrecision" shape-rendering="geometricPrecision" transform="matrix(1,0,0,1,15,15)" stroke="rgb(255,204,0)">
      <rect x="543.5" y="0" clip-path="url(#clipPath2)" width="249" rx="4" ry="4" height="55" stroke="none"/>
    </g>
    <g text-rendering="geometricPrecision" stroke-miterlimit="1.45" shape-rendering="geometricPrecision" transform="matrix(1,0,0,1,15,15)" stroke-linecap="butt">
      <rect x="543.5" y="0" clip-path="url(#clipPath2)" fill="none" width="249" rx="4" ry="4" height="55"/>
      <text x="579.2949" xml:space="preserve" y="17.6855" clip-path="url(#clipPath2)" font-family="sans-serif" stroke="none">Las declaraciones de testigos</text>
      <text x="568.8623" xml:space="preserve" y="31.6543" clip-path="url(#clipPath2)" font-family="sans-serif" stroke="none">sin sesgos, y respecto de hechos</text>
      <text x="548.6621" xml:space="preserve" y="45.623" clip-path="url(#clipPath2)" font-family="sans-serif" stroke="none">de periodos prolongados son confiables</text>
    </g>
    <g fill="url(#linearGradient1)" text-rendering="geometricPrecision" shape-rendering="geometricPrecision" transform="matrix(1,0,0,1,15,15)" stroke="url(#linearGradient1)">
      <circle r="20" clip-path="url(#clipPath2)" cx="458" cy="282.5" stroke="none"/>
    </g>
    <g text-rendering="geometricPrecision" stroke-miterlimit="1.45" shape-rendering="geometricPrecision" transform="matrix(1,0,0,1,15,15)" stroke-linecap="butt">
      <circle fill="none" r="20" clip-path="url(#clipPath2)" cx="458" cy="282.5"/>
      <text x="447.0796" font-size="15px" y="287.6929" clip-path="url(#clipPath2)" font-family="sans-serif" stroke="none" font-weight="bold" xml:space="preserve">AT</text>
    </g>
    <g fill="url(#linearGradient2)" text-rendering="geometricPrecision" shape-rendering="geometricPrecision" transform="matrix(1,0,0,1,15,15)" stroke="url(#linearGradient2)">
      <circle r="20" clip-path="url(#clipPath2)" cx="458" cy="117.5" stroke="none"/>
    </g>
    <g text-rendering="geometricPrecision" stroke-miterlimit="1.45" shape-rendering="geometricPrecision" transform="matrix(1,0,0,1,15,15)" stroke-linecap="butt">
      <circle fill="none" r="20" clip-path="url(#clipPath2)" cx="458" cy="117.5"/>
      <text x="447.0796" font-size="15px" y="122.6929" clip-path="url(#clipPath2)" font-family="sans-serif" stroke="none" font-weight="bold" xml:space="preserve">AT</text>
    </g>
    <g fill="url(#linearGradient3)" text-rendering="geometricPrecision" shape-rendering="geometricPrecision" transform="matrix(1,0,0,1,15,15)" stroke="url(#linearGradient3)">
      <circle r="20" clip-path="url(#clipPath2)" cx="203" cy="282.5" stroke="none"/>
    </g>
    <g text-rendering="geometricPrecision" stroke-miterlimit="1.45" shape-rendering="geometricPrecision" transform="matrix(1,0,0,1,15,15)" stroke-linecap="butt">
      <circle fill="none" r="20" clip-path="url(#clipPath2)" cx="203" cy="282.5"/>
      <text x="190.4316" font-size="30px" y="292.8857" clip-path="url(#clipPath2)" font-family="sans-serif" stroke="none" font-weight="bold" xml:space="preserve">+</text>
    </g>
    <g text-rendering="geometricPrecision" stroke-miterlimit="1.45" shape-rendering="geometricPrecision" transform="matrix(1,0,0,1,15,15)" stroke-linecap="butt">
      <path fill="none" d="M572.9536 282.5 L489.0151 282.5" clip-path="url(#clipPath2)"/>
      <path d="M478.0151 282.5 L490.0151 288.5 L490.0151 276.5 Z" clip-path="url(#clipPath2)" stroke="none"/>
    </g>
    <g text-rendering="geometricPrecision" stroke-miterlimit="1.45" shape-rendering="geometricPrecision" transform="matrix(1,0,0,1,15,15)" stroke-linecap="butt">
      <path fill="none" d="M543.4502 192.5 L528 192.5 L523.625 193.125 L520.5 195 L518.625 198.125 L518 202.5 L518 257.5 L517.375 261.875 L515.5 265 L512.375 266.875 L508 267.5 L482.2644 267.5" clip-path="url(#clipPath2)"/>
      <path d="M471.2644 267.5 L483.2644 273.5 L483.2644 261.5 Z" clip-path="url(#clipPath2)" stroke="none"/>
    </g>
    <g text-rendering="geometricPrecision" stroke-miterlimit="1.45" shape-rendering="geometricPrecision" transform="matrix(1,0,0,1,15,15)" stroke-linecap="butt">
      <path fill="none" d="M437.9985 282.5 L382 282.5" clip-path="url(#clipPath2)"/>
      <path d="M371 282.5 L383 288.5 L383 276.5 Z" clip-path="url(#clipPath2)" stroke="none"/>
    </g>
    <g text-rendering="geometricPrecision" stroke-miterlimit="1.45" shape-rendering="geometricPrecision" transform="matrix(1,0,0,1,15,15)" stroke-linecap="butt">
      <path fill="none" d="M582.4745 117.5 L488.9943 117.5" clip-path="url(#clipPath2)"/>
      <path d="M477.9943 117.5 L489.9943 123.5 L489.9943 111.5 Z" clip-path="url(#clipPath2)" stroke="none"/>
    </g>
    <g text-rendering="geometricPrecision" stroke-miterlimit="1.45" shape-rendering="geometricPrecision" transform="matrix(1,0,0,1,15,15)" stroke-linecap="butt">
      <path fill="none" d="M543.4502 27.5 L528 27.5 L523.625 28.125 L520.5 30 L518.625 33.125 L518 37.5 L518 92.5 L517.375 96.875 L515.5 100 L512.375 101.875 L508 102.5 L482.2644 102.5" clip-path="url(#clipPath2)"/>
      <path d="M471.2644 102.5 L483.2644 108.5 L483.2644 96.5 Z" clip-path="url(#clipPath2)" stroke="none"/>
    </g>
    <g text-rendering="geometricPrecision" stroke-miterlimit="1.45" shape-rendering="geometricPrecision" transform="matrix(1,0,0,1,15,15)" stroke-linecap="butt">
      <path fill="none" d="M437.9922 117.5 L408 117.5 L403.625 118.125 L400.5 120 L398.625 123.125 L398 127.5 L398 265 L397.5 269.375 L396 272.5 L393.5 274.375 L390 275 L382 275" clip-path="url(#clipPath2)"/>
      <path d="M371 275 L383 281 L383 269 Z" clip-path="url(#clipPath2)" stroke="none"/>
    </g>
    <g text-rendering="geometricPrecision" stroke-miterlimit="1.45" shape-rendering="geometricPrecision" transform="matrix(1,0,0,1,15,15)" stroke-linecap="butt">
      <path fill="none" d="M274.9746 282.5 L233.9941 282.5" clip-path="url(#clipPath2)"/>
      <path d="M222.9941 282.5 L234.9941 288.5 L234.9941 276.5 Z" clip-path="url(#clipPath2)" stroke="none"/>
    </g>
    <g text-rendering="geometricPrecision" stroke-miterlimit="1.45" shape-rendering="geometricPrecision" transform="matrix(1,0,0,1,15,15)" stroke-linecap="butt">
      <path fill="none" d="M182.9853 282.5 L147 282.5" clip-path="url(#clipPath2)"/>
      <path d="M136 282.5 L148 288.5 L148 276.5 Z" clip-path="url(#clipPath2)" stroke="none"/>
    </g>
  </g>
</svg>
