<?xml version="1.0" encoding="UTF-8"?><svg xmlns="http://www.w3.org/2000/svg" xmlns:xlink="http://www.w3.org/1999/xlink" fill-opacity="1" color-rendering="auto" color-interpolation="auto" text-rendering="auto" stroke="black" stroke-linecap="square" width="1205" stroke-miterlimit="10" shape-rendering="auto" stroke-opacity="1" fill="black" stroke-dasharray="none" font-weight="normal" stroke-width="1" height="219" font-family="'Dialog'" font-style="normal" stroke-linejoin="miter" font-size="12px" stroke-dashoffset="0" image-rendering="auto">
  <!--Generated by ySVG 2.5-->
  <defs id="genericDefs"/>
  <g>
    <defs id="defs1">
      <linearGradient x1="163" gradientUnits="userSpaceOnUse" x2="243" y1="78.75" y2="118.75" id="linearGradient1" spreadMethod="reflect">
        <stop stop-opacity="1" stop-color="rgb(232,238,247)" offset="0%"/>
        <stop stop-opacity="1" stop-color="rgb(183,201,227)" offset="100%"/>
      </linearGradient>
      <linearGradient x1="613" gradientUnits="userSpaceOnUse" x2="693" y1="78.75" y2="118.75" id="linearGradient2" spreadMethod="reflect">
        <stop stop-opacity="1" stop-color="rgb(232,238,247)" offset="0%"/>
        <stop stop-opacity="1" stop-color="rgb(183,201,227)" offset="100%"/>
      </linearGradient>
      <linearGradient x1="373" gradientUnits="userSpaceOnUse" x2="453" y1="78.75" y2="118.75" id="linearGradient3" spreadMethod="reflect">
        <stop stop-opacity="1" stop-color="rgb(232,238,247)" offset="0%"/>
        <stop stop-opacity="1" stop-color="rgb(183,201,227)" offset="100%"/>
      </linearGradient>
      <linearGradient x1="928" gradientUnits="userSpaceOnUse" x2="1008" y1="78.75" y2="118.75" id="linearGradient4" spreadMethod="reflect">
        <stop stop-opacity="1" stop-color="rgb(232,238,247)" offset="0%"/>
        <stop stop-opacity="1" stop-color="rgb(183,201,227)" offset="100%"/>
      </linearGradient>
      <clipPath clipPathUnits="userSpaceOnUse" id="clipPath1">
        <path d="M0 0 L1205 0 L1205 219 L0 219 L0 0 Z"/>
      </clipPath>
      <clipPath clipPathUnits="userSpaceOnUse" id="clipPath2">
        <path d="M-15 -15 L1190 -15 L1190 204 L-15 204 L-15 -15 Z"/>
      </clipPath>
    </defs>
    <g fill="white" text-rendering="geometricPrecision" shape-rendering="geometricPrecision" transform="matrix(1,0,0,1,15,15)" stroke="white">
      <rect x="0" width="136" height="55" y="71.25" clip-path="url(#clipPath2)" stroke="none"/>
    </g>
    <g text-rendering="geometricPrecision" stroke-miterlimit="1.45" shape-rendering="geometricPrecision" transform="matrix(1,0,0,1,15,15)" stroke-linecap="butt">
      <rect fill="none" x="0" width="136" height="55" y="71.25" clip-path="url(#clipPath2)"/>
      <text x="5.3809" xml:space="preserve" y="102.9043" clip-path="url(#clipPath2)" font-family="sans-serif" stroke="none">Despido injustificado</text>
    </g>
    <g fill="rgb(255,255,153)" text-rendering="geometricPrecision" shape-rendering="geometricPrecision" transform="matrix(1,0,0,1,15,15)" stroke="rgb(255,255,153)">
      <rect x="266.5" width="83" height="40" y="78.75" clip-path="url(#clipPath2)" stroke="none"/>
    </g>
    <g text-rendering="geometricPrecision" stroke-miterlimit="1.45" shape-rendering="geometricPrecision" transform="matrix(1,0,0,1,15,15)" stroke-linecap="butt">
      <rect fill="none" x="266.5" width="83" height="40" y="78.75" clip-path="url(#clipPath2)"/>
      <text x="280.0889" xml:space="preserve" y="102.9043" clip-path="url(#clipPath2)" font-family="sans-serif" stroke="none">Renuncia</text>
    </g>
    <g fill="url(#linearGradient1)" text-rendering="geometricPrecision" shape-rendering="geometricPrecision" transform="matrix(1,0,0,1,15,15)" stroke="url(#linearGradient1)">
      <circle r="20" clip-path="url(#clipPath2)" cx="203" cy="98.75" stroke="none"/>
    </g>
    <g text-rendering="geometricPrecision" stroke-miterlimit="1.45" shape-rendering="geometricPrecision" transform="matrix(1,0,0,1,15,15)" stroke-linecap="butt">
      <circle fill="none" r="20" clip-path="url(#clipPath2)" cx="203" cy="98.75"/>
      <text x="194.6992" font-size="40px" y="112.5977" clip-path="url(#clipPath2)" font-family="sans-serif" stroke="none" font-weight="bold" xml:space="preserve">-</text>
    </g>
    <g fill="url(#linearGradient2)" text-rendering="geometricPrecision" shape-rendering="geometricPrecision" transform="matrix(1,0,0,1,15,15)" stroke="url(#linearGradient2)">
      <circle r="20" clip-path="url(#clipPath2)" cx="653" cy="98.75" stroke="none"/>
    </g>
    <g text-rendering="geometricPrecision" stroke-miterlimit="1.45" shape-rendering="geometricPrecision" transform="matrix(1,0,0,1,15,15)" stroke-linecap="butt">
      <circle fill="none" r="20" clip-path="url(#clipPath2)" cx="653" cy="98.75"/>
      <text x="640.4316" font-size="30px" y="109.1357" clip-path="url(#clipPath2)" font-family="sans-serif" stroke="none" font-weight="bold" xml:space="preserve">+</text>
    </g>
    <g fill="rgb(255,255,153)" text-rendering="geometricPrecision" shape-rendering="geometricPrecision" transform="matrix(1,0,0,1,15,15)" stroke="rgb(255,255,153)">
      <rect x="741.75" width="242.5" height="47.5" y="0" clip-path="url(#clipPath2)" stroke="none"/>
    </g>
    <g text-rendering="geometricPrecision" stroke-miterlimit="1.45" shape-rendering="geometricPrecision" transform="matrix(1,0,0,1,15,15)" stroke-linecap="butt">
      <rect fill="none" x="741.75" width="242.5" height="47.5" y="0" clip-path="url(#clipPath2)"/>
      <text x="777.7314" xml:space="preserve" y="20.9199" clip-path="url(#clipPath2)" font-family="sans-serif" stroke="none">La firma normalmente avala</text>
      <text x="750.0928" xml:space="preserve" y="34.8887" clip-path="url(#clipPath2)" font-family="sans-serif" stroke="none">el contenido del documento del autor</text>
    </g>
    <g fill="rgb(255,255,153)" text-rendering="geometricPrecision" shape-rendering="geometricPrecision" transform="matrix(1,0,0,1,15,15)" stroke="rgb(255,255,153)">
      <rect x="740.5" width="155" height="47.5" y="75" clip-path="url(#clipPath2)" stroke="none"/>
    </g>
    <g text-rendering="geometricPrecision" stroke-miterlimit="1.45" shape-rendering="geometricPrecision" transform="matrix(1,0,0,1,15,15)" stroke-linecap="butt">
      <rect fill="none" x="740.5" width="155" height="47.5" y="75" clip-path="url(#clipPath2)"/>
      <text x="767.9229" xml:space="preserve" y="95.9199" clip-path="url(#clipPath2)" font-family="sans-serif" stroke="none">La firma es de la</text>
      <text x="758.1758" xml:space="preserve" y="109.8887" clip-path="url(#clipPath2)" font-family="sans-serif" stroke="none">demandante/autora</text>
    </g>
    <g fill="rgb(255,255,153)" text-rendering="geometricPrecision" shape-rendering="geometricPrecision" transform="matrix(1,0,0,1,15,15)" stroke="rgb(255,255,153)">
      <rect x="485" width="96" height="81.5625" y="57.9688" clip-path="url(#clipPath2)" stroke="none"/>
    </g>
    <g text-rendering="geometricPrecision" stroke-miterlimit="1.45" shape-rendering="geometricPrecision" transform="matrix(1,0,0,1,15,15)" stroke-linecap="butt">
      <rect fill="none" x="485" width="96" height="81.5625" y="57.9688" clip-path="url(#clipPath2)"/>
      <text x="505.0947" xml:space="preserve" y="95.9199" clip-path="url(#clipPath2)" font-family="sans-serif" stroke="none">Renunció</text>
      <text x="493.4873" xml:space="preserve" y="109.8887" clip-path="url(#clipPath2)" font-family="sans-serif" stroke="none">Ingresó 2011</text>
    </g>
    <g fill="url(#linearGradient3)" text-rendering="geometricPrecision" shape-rendering="geometricPrecision" transform="matrix(1,0,0,1,15,15)" stroke="url(#linearGradient3)">
      <circle r="20" clip-path="url(#clipPath2)" cx="413" cy="98.75" stroke="none"/>
    </g>
    <g text-rendering="geometricPrecision" stroke-miterlimit="1.45" shape-rendering="geometricPrecision" transform="matrix(1,0,0,1,15,15)" stroke-linecap="butt">
      <circle fill="none" r="20" clip-path="url(#clipPath2)" cx="413" cy="98.75"/>
      <text x="400.4316" font-size="30px" y="109.1357" clip-path="url(#clipPath2)" font-family="sans-serif" stroke="none" font-weight="bold" xml:space="preserve">+</text>
    </g>
    <g fill="url(#linearGradient4)" text-rendering="geometricPrecision" shape-rendering="geometricPrecision" transform="matrix(1,0,0,1,15,15)" stroke="url(#linearGradient4)">
      <circle r="20" clip-path="url(#clipPath2)" cx="968" cy="98.75" stroke="none"/>
    </g>
    <g text-rendering="geometricPrecision" stroke-miterlimit="1.45" shape-rendering="geometricPrecision" transform="matrix(1,0,0,1,15,15)" stroke-linecap="butt">
      <circle fill="none" r="20" clip-path="url(#clipPath2)" cx="968" cy="98.75"/>
      <text x="957.0942" font-size="15px" y="103.9429" clip-path="url(#clipPath2)" font-family="sans-serif" stroke="none" font-weight="bold" xml:space="preserve">EX</text>
    </g>
    <g fill="rgb(255,255,153)" text-rendering="geometricPrecision" shape-rendering="geometricPrecision" transform="matrix(1,0,0,1,15,15)" stroke="rgb(255,255,153)">
      <rect x="1070" y="158.75" clip-path="url(#clipPath2)" width="96" rx="4" ry="4" height="30" stroke="none"/>
    </g>
    <g text-rendering="geometricPrecision" stroke-miterlimit="1.45" shape-rendering="geometricPrecision" transform="matrix(1,0,0,1,15,15)" stroke-linecap="butt">
      <rect x="1070" y="158.75" clip-path="url(#clipPath2)" fill="none" width="96" rx="4" ry="4" height="30"/>
      <text x="1082.1758" xml:space="preserve" y="177.9043" clip-path="url(#clipPath2)" font-family="sans-serif" stroke="none">Grafoscopía</text>
    </g>
    <g fill="rgb(255,255,153)" text-rendering="geometricPrecision" shape-rendering="geometricPrecision" transform="matrix(1,0,0,1,15,15)" stroke="rgb(255,255,153)">
      <rect x="1062.4507" y="78.75" clip-path="url(#clipPath2)" width="111.0987" rx="4" ry="4" height="40" stroke="none"/>
    </g>
    <g text-rendering="geometricPrecision" stroke-miterlimit="1.45" shape-rendering="geometricPrecision" transform="matrix(1,0,0,1,15,15)" stroke-linecap="butt">
      <rect x="1062.4507" y="78.75" clip-path="url(#clipPath2)" fill="none" width="111.0987" rx="4" ry="4" height="40"/>
      <text x="1063.9971" xml:space="preserve" y="102.9043" clip-path="url(#clipPath2)" font-family="sans-serif" stroke="none">Documentoscopía</text>
    </g>
    <g fill="rgb(255,255,153)" text-rendering="geometricPrecision" shape-rendering="geometricPrecision" transform="matrix(1,0,0,1,15,15)" stroke="rgb(255,255,153)">
      <rect x="1078" y="8.75" clip-path="url(#clipPath2)" width="80" rx="4" ry="4" height="30" stroke="none"/>
    </g>
    <g text-rendering="geometricPrecision" stroke-miterlimit="1.45" shape-rendering="geometricPrecision" transform="matrix(1,0,0,1,15,15)" stroke-linecap="butt">
      <rect x="1078" y="8.75" clip-path="url(#clipPath2)" fill="none" width="80" rx="4" ry="4" height="30"/>
      <text x="1086.9336" xml:space="preserve" y="27.9043" clip-path="url(#clipPath2)" font-family="sans-serif" stroke="none">Grafología</text>
      <path fill="none" d="M266.4575 98.75 L234.0112 98.75" clip-path="url(#clipPath2)"/>
      <path d="M223.0112 98.75 L235.0112 104.75 L235.0112 92.75 Z" clip-path="url(#clipPath2)" stroke="none"/>
      <path fill="none" d="M182.9853 98.75 L147 98.75" clip-path="url(#clipPath2)"/>
      <path d="M136 98.75 L148 104.75 L148 92.75 Z" clip-path="url(#clipPath2)" stroke="none"/>
      <path fill="none" d="M741.7219 23.75 L713 23.75 L713 83.75 L674.2644 83.75" clip-path="url(#clipPath2)"/>
      <path d="M666.2644 83.75 L678.2644 88.75 L675.2644 83.75 L678.2644 78.75 Z" clip-path="url(#clipPath2)" stroke="none"/>
      <path fill="none" d="M740.467 98.75 L681.0017 98.75" clip-path="url(#clipPath2)"/>
      <path d="M673.0017 98.75 L685.0017 103.75 L682.0017 98.75 L685.0017 93.75 Z" clip-path="url(#clipPath2)" stroke="none"/>
      <path fill="none" d="M633.0059 98.75 L589 98.75" clip-path="url(#clipPath2)"/>
      <path d="M581 98.75 L593 103.75 L590 98.75 L593 93.75 Z" clip-path="url(#clipPath2)" stroke="none"/>
    </g>
    <g text-rendering="geometricPrecision" stroke-miterlimit="1.45" shape-rendering="geometricPrecision" transform="matrix(1,0,0,1,15,15)" stroke-linecap="butt">
      <path fill="none" d="M484.9746 98.75 L443.9941 98.75" clip-path="url(#clipPath2)"/>
      <path d="M432.9941 98.75 L444.9941 104.75 L444.9941 92.75 Z" clip-path="url(#clipPath2)" stroke="none"/>
    </g>
    <g text-rendering="geometricPrecision" stroke-miterlimit="1.45" shape-rendering="geometricPrecision" transform="matrix(1,0,0,1,15,15)" stroke-linecap="butt">
      <path fill="none" d="M392.9887 98.75 L360.5 98.75" clip-path="url(#clipPath2)"/>
      <path d="M349.5 98.75 L361.5 104.75 L361.5 92.75 Z" clip-path="url(#clipPath2)" stroke="none"/>
    </g>
    <g text-rendering="geometricPrecision" stroke-miterlimit="1.45" shape-rendering="geometricPrecision" transform="matrix(1,0,0,1,15,15)" stroke-linecap="butt">
      <path fill="none" d="M948.0056 98.75 L903.5 98.75" clip-path="url(#clipPath2)"/>
      <path d="M895.5 98.75 L907.5 103.75 L904.5 98.75 L907.5 93.75 Z" clip-path="url(#clipPath2)" stroke="none"/>
      <path fill="none" d="M1069.959 173.75 L1028 173.75 L1028 113.75 L989.2644 113.75" clip-path="url(#clipPath2)"/>
      <path d="M981.2644 113.75 L993.2644 118.75 L990.2644 113.75 L993.2644 108.75 Z" clip-path="url(#clipPath2)" stroke="none"/>
      <path fill="none" d="M1062.4143 98.75 L996.0051 98.75" clip-path="url(#clipPath2)"/>
      <path d="M988.0051 98.75 L1000.0051 103.75 L997.0051 98.75 L1000.0051 93.75 Z" clip-path="url(#clipPath2)" stroke="none"/>
      <path fill="none" d="M1077.9512 23.75 L1028 23.75 L1028 83.75 L989.2644 83.75" clip-path="url(#clipPath2)"/>
      <path d="M981.2644 83.75 L993.2644 88.75 L990.2644 83.75 L993.2644 78.75 Z" clip-path="url(#clipPath2)" stroke="none"/>
    </g>
  </g>
</svg>
