<?xml version="1.0" encoding="UTF-8"?><svg xmlns="http://www.w3.org/2000/svg" xmlns:xlink="http://www.w3.org/1999/xlink" fill-opacity="1" color-rendering="auto" color-interpolation="auto" text-rendering="auto" stroke="black" stroke-linecap="square" width="1401" stroke-miterlimit="10" shape-rendering="auto" stroke-opacity="1" fill="black" stroke-dasharray="none" font-weight="normal" stroke-width="1" height="236" font-family="'Dialog'" font-style="normal" stroke-linejoin="miter" font-size="12px" stroke-dashoffset="0" image-rendering="auto">
  <!--Generated by ySVG 2.5-->
  <defs id="genericDefs"/>
  <g>
    <defs id="defs1">
      <linearGradient x1="928" gradientUnits="userSpaceOnUse" x2="1008" y1="157.7796" y2="197.7796" id="linearGradient1" spreadMethod="reflect">
        <stop stop-opacity="1" stop-color="rgb(232,238,247)" offset="0%"/>
        <stop stop-opacity="1" stop-color="rgb(183,201,227)" offset="100%"/>
      </linearGradient>
      <linearGradient x1="583" gradientUnits="userSpaceOnUse" x2="663" y1="157.7796" y2="197.7796" id="linearGradient2" spreadMethod="reflect">
        <stop stop-opacity="1" stop-color="rgb(232,238,247)" offset="0%"/>
        <stop stop-opacity="1" stop-color="rgb(183,201,227)" offset="100%"/>
      </linearGradient>
      <linearGradient x1="363.8787" gradientUnits="userSpaceOnUse" x2="443.8787" y1="157.7796" y2="197.7796" id="linearGradient3" spreadMethod="reflect">
        <stop stop-opacity="1" stop-color="rgb(232,238,247)" offset="0%"/>
        <stop stop-opacity="1" stop-color="rgb(183,201,227)" offset="100%"/>
      </linearGradient>
      <linearGradient x1="147.3787" gradientUnits="userSpaceOnUse" x2="227.3787" y1="157.7796" y2="197.7796" id="linearGradient4" spreadMethod="reflect">
        <stop stop-opacity="1" stop-color="rgb(232,238,247)" offset="0%"/>
        <stop stop-opacity="1" stop-color="rgb(183,201,227)" offset="100%"/>
      </linearGradient>
      <clipPath clipPathUnits="userSpaceOnUse" id="clipPath1">
        <path d="M0 0 L1401 0 L1401 236 L0 236 L0 0 Z"/>
      </clipPath>
      <clipPath clipPathUnits="userSpaceOnUse" id="clipPath2">
        <path d="M-15 -15 L1386 -15 L1386 221 L-15 221 L-15 -15 Z"/>
      </clipPath>
    </defs>
    <g fill="rgb(255,204,0)" text-rendering="geometricPrecision" shape-rendering="geometricPrecision" transform="matrix(1,0,0,1,15,15)" stroke="rgb(255,204,0)">
      <rect x="0" width="136" height="55" y="150.2796" clip-path="url(#clipPath2)" stroke="none"/>
    </g>
    <g text-rendering="geometricPrecision" stroke-miterlimit="1.45" shape-rendering="geometricPrecision" transform="matrix(1,0,0,1,15,15)" stroke-linecap="butt">
      <rect fill="none" x="0" width="136" height="55" y="150.2796" clip-path="url(#clipPath2)"/>
      <text x="5.3809" xml:space="preserve" y="181.9339" clip-path="url(#clipPath2)" font-family="sans-serif" stroke="none">Despido injustificado</text>
    </g>
    <g fill="rgb(255,255,153)" text-rendering="geometricPrecision" shape-rendering="geometricPrecision" transform="matrix(1,0,0,1,15,15)" stroke="rgb(255,255,153)">
      <rect x="257.3787" width="92.1213" height="40" y="157.7796" clip-path="url(#clipPath2)" stroke="none"/>
    </g>
    <g text-rendering="geometricPrecision" stroke-miterlimit="1.45" shape-rendering="geometricPrecision" transform="matrix(1,0,0,1,15,15)" stroke-linecap="butt">
      <rect fill="none" x="257.3787" width="92.1213" height="40" y="157.7796" clip-path="url(#clipPath2)"/>
      <text x="259.4999" xml:space="preserve" y="174.9495" clip-path="url(#clipPath2)" font-family="sans-serif" stroke="none">Fue despedida</text>
      <text x="263.9266" xml:space="preserve" y="188.9183" clip-path="url(#clipPath2)" font-family="sans-serif" stroke="none">Ingresó 1960</text>
    </g>
    <g fill="rgb(255,204,0)" text-rendering="geometricPrecision" shape-rendering="geometricPrecision" transform="matrix(1,0,0,1,15,15)" stroke="rgb(255,204,0)">
      <rect x="476.5" width="83" height="40" y="157.7796" clip-path="url(#clipPath2)" stroke="none"/>
    </g>
    <g text-rendering="geometricPrecision" stroke-miterlimit="1.45" shape-rendering="geometricPrecision" transform="matrix(1,0,0,1,15,15)" stroke-linecap="butt">
      <rect fill="none" x="476.5" width="83" height="40" y="157.7796" clip-path="url(#clipPath2)"/>
      <text x="481.7305" xml:space="preserve" y="181.9339" clip-path="url(#clipPath2)" font-family="sans-serif" stroke="none">No renunció</text>
    </g>
    <g fill="url(#linearGradient1)" text-rendering="geometricPrecision" shape-rendering="geometricPrecision" transform="matrix(1,0,0,1,15,15)" stroke="url(#linearGradient1)">
      <circle r="20" clip-path="url(#clipPath2)" cx="968" cy="177.7796" stroke="none"/>
    </g>
    <g text-rendering="geometricPrecision" stroke-miterlimit="1.45" shape-rendering="geometricPrecision" transform="matrix(1,0,0,1,15,15)" stroke-linecap="butt">
      <circle fill="none" r="20" clip-path="url(#clipPath2)" cx="968" cy="177.7796"/>
      <text x="955.4316" font-size="30px" y="188.1653" clip-path="url(#clipPath2)" font-family="sans-serif" stroke="none" font-weight="bold" xml:space="preserve">+</text>
    </g>
    <g fill="rgb(255,204,0)" text-rendering="geometricPrecision" shape-rendering="geometricPrecision" transform="matrix(1,0,0,1,15,15)" stroke="rgb(255,204,0)">
      <rect x="712.5066" width="180.9868" height="55" y="150.2796" clip-path="url(#clipPath2)" stroke="none"/>
    </g>
    <g text-rendering="geometricPrecision" stroke-miterlimit="1.45" shape-rendering="geometricPrecision" transform="matrix(1,0,0,1,15,15)" stroke-linecap="butt">
      <rect fill="none" x="712.5066" width="180.9868" height="55" y="150.2796" clip-path="url(#clipPath2)"/>
      <text x="730.5605" xml:space="preserve" y="174.9495" clip-path="url(#clipPath2)" font-family="sans-serif" stroke="none">La demandante no es la</text>
      <text x="736.4287" xml:space="preserve" y="188.9183" clip-path="url(#clipPath2)" font-family="sans-serif" stroke="none">autora del documento</text>
    </g>
    <g fill="rgb(255,204,0)" text-rendering="geometricPrecision" shape-rendering="geometricPrecision" transform="matrix(1,0,0,1,15,15)" stroke="rgb(255,204,0)">
      <rect x="1045.0559" width="325.8882" height="115.5592" y="0" clip-path="url(#clipPath2)" stroke="none"/>
    </g>
    <g text-rendering="geometricPrecision" stroke-miterlimit="1.45" shape-rendering="geometricPrecision" transform="matrix(1,0,0,1,15,15)" stroke-linecap="butt">
      <rect fill="none" x="1045.0559" width="325.8882" height="115.5592" y="0" clip-path="url(#clipPath2)"/>
      <text x="1103.6035" xml:space="preserve" y="20.0277" clip-path="url(#clipPath2)" font-family="sans-serif" stroke="none">Las personas mayores de 80 años,</text>
      <text x="1115.5508" xml:space="preserve" y="33.9964" clip-path="url(#clipPath2)" font-family="sans-serif" stroke="none">en situación de vulnerabilidad,</text>
      <text x="1120.3906" xml:space="preserve" y="47.9652" clip-path="url(#clipPath2)" font-family="sans-serif" stroke="none">no habituada a la tecnología,</text>
      <text x="1097.5039" xml:space="preserve" y="61.9339" clip-path="url(#clipPath2)" font-family="sans-serif" stroke="none">mayormente no manejan programas</text>
      <text x="1053.4883" xml:space="preserve" y="75.9026" clip-path="url(#clipPath2)" font-family="sans-serif" stroke="none">informáticos, por lo que no son las autoras directas</text>
      <text x="1127.8525" xml:space="preserve" y="89.8714" clip-path="url(#clipPath2)" font-family="sans-serif" stroke="none">de los documentos hechos</text>
      <text x="1156.6133" xml:space="preserve" y="103.8401" clip-path="url(#clipPath2)" font-family="sans-serif" stroke="none">en computadora.</text>
    </g>
    <g fill="rgb(255,204,0)" text-rendering="geometricPrecision" shape-rendering="geometricPrecision" transform="matrix(1,0,0,1,15,15)" stroke="rgb(255,204,0)">
      <rect x="1086.75" width="242.5" height="34" y="160.7796" clip-path="url(#clipPath2)" stroke="none"/>
    </g>
    <g text-rendering="geometricPrecision" stroke-miterlimit="1.45" shape-rendering="geometricPrecision" transform="matrix(1,0,0,1,15,15)" stroke-linecap="butt">
      <rect fill="none" x="1086.75" width="242.5" height="34" y="160.7796" clip-path="url(#clipPath2)"/>
      <text x="1126.5195" xml:space="preserve" y="174.9495" clip-path="url(#clipPath2)" font-family="sans-serif" stroke="none">La demandante cumple las</text>
      <text x="1131.6377" xml:space="preserve" y="188.9183" clip-path="url(#clipPath2)" font-family="sans-serif" stroke="none">características anteriores</text>
    </g>
    <g fill="rgb(255,204,0)" text-rendering="geometricPrecision" shape-rendering="geometricPrecision" transform="matrix(1,0,0,1,15,15)" stroke="rgb(255,204,0)">
      <rect x="710.5" width="155" height="47.5" y="79.0296" clip-path="url(#clipPath2)" stroke="none"/>
    </g>
    <g text-rendering="geometricPrecision" stroke-miterlimit="1.45" shape-rendering="geometricPrecision" transform="matrix(1,0,0,1,15,15)" stroke-linecap="butt">
      <rect fill="none" x="710.5" width="155" height="47.5" y="79.0296" clip-path="url(#clipPath2)"/>
      <text x="716.832" xml:space="preserve" y="99.9495" clip-path="url(#clipPath2)" font-family="sans-serif" stroke="none">El contenido de la carta</text>
      <text x="728.5859" xml:space="preserve" y="113.9183" clip-path="url(#clipPath2)" font-family="sans-serif" stroke="none">no vale como cierto</text>
    </g>
    <g fill="url(#linearGradient2)" text-rendering="geometricPrecision" shape-rendering="geometricPrecision" transform="matrix(1,0,0,1,15,15)" stroke="url(#linearGradient2)">
      <circle r="20" clip-path="url(#clipPath2)" cx="623" cy="177.7796" stroke="none"/>
    </g>
    <g text-rendering="geometricPrecision" stroke-miterlimit="1.45" shape-rendering="geometricPrecision" transform="matrix(1,0,0,1,15,15)" stroke-linecap="butt">
      <circle fill="none" r="20" clip-path="url(#clipPath2)" cx="623" cy="177.7796"/>
      <text x="610.4316" font-size="30px" y="188.1653" clip-path="url(#clipPath2)" font-family="sans-serif" stroke="none" font-weight="bold" xml:space="preserve">+</text>
    </g>
    <g fill="url(#linearGradient3)" text-rendering="geometricPrecision" shape-rendering="geometricPrecision" transform="matrix(1,0,0,1,15,15)" stroke="url(#linearGradient3)">
      <circle r="20" clip-path="url(#clipPath2)" cx="403.8787" cy="177.7796" stroke="none"/>
    </g>
    <g text-rendering="geometricPrecision" stroke-miterlimit="1.45" shape-rendering="geometricPrecision" transform="matrix(1,0,0,1,15,15)" stroke-linecap="butt">
      <circle fill="none" r="20" clip-path="url(#clipPath2)" cx="403.8787" cy="177.7796"/>
      <text x="391.3103" font-size="30px" y="188.1653" clip-path="url(#clipPath2)" font-family="sans-serif" stroke="none" font-weight="bold" xml:space="preserve">+</text>
    </g>
    <g fill="url(#linearGradient4)" text-rendering="geometricPrecision" shape-rendering="geometricPrecision" transform="matrix(1,0,0,1,15,15)" stroke="url(#linearGradient4)">
      <circle r="20" clip-path="url(#clipPath2)" cx="187.3787" cy="177.7796" stroke="none"/>
    </g>
    <g text-rendering="geometricPrecision" stroke-miterlimit="1.45" shape-rendering="geometricPrecision" transform="matrix(1,0,0,1,15,15)" stroke-linecap="butt">
      <circle fill="none" r="20" clip-path="url(#clipPath2)" cx="187.3787" cy="177.7796"/>
      <text x="174.8103" font-size="30px" y="188.1653" clip-path="url(#clipPath2)" font-family="sans-serif" stroke="none" font-weight="bold" xml:space="preserve">+</text>
    </g>
    <g text-rendering="geometricPrecision" stroke-miterlimit="1.45" shape-rendering="geometricPrecision" transform="matrix(1,0,0,1,15,15)" stroke-linecap="butt">
      <path fill="none" d="M948.0046 177.7796 L901.4934 177.7796" clip-path="url(#clipPath2)"/>
      <path d="M893.4934 177.7796 L905.4934 182.7796 L902.4934 177.7796 L905.4934 172.7796 Z" clip-path="url(#clipPath2)" stroke="none"/>
      <path fill="none" d="M1045.0226 57.7796 L1028 57.7796 L1028 162.7796 L989.2644 162.7796" clip-path="url(#clipPath2)"/>
      <path d="M981.2644 162.7796 L993.2644 167.7796 L990.2644 162.7796 L993.2644 157.7796 Z" clip-path="url(#clipPath2)" stroke="none"/>
      <path fill="none" d="M1086.7018 177.7796 L996.017 177.7796" clip-path="url(#clipPath2)"/>
      <path d="M988.017 177.7796 L1000.017 182.7796 L997.017 177.7796 L1000.017 172.7796 Z" clip-path="url(#clipPath2)" stroke="none"/>
      <path fill="none" d="M712.4726 177.7796 L651.0027 177.7796" clip-path="url(#clipPath2)"/>
      <path d="M643.0027 177.7796 L655.0027 182.7796 L652.0027 177.7796 L655.0027 172.7796 Z" clip-path="url(#clipPath2)" stroke="none"/>
      <path fill="none" d="M710.4731 102.7796 L683 102.7796 L683 162.7796 L644.2644 162.7796" clip-path="url(#clipPath2)"/>
      <path d="M636.2644 162.7796 L648.2644 167.7796 L645.2644 162.7796 L648.2644 157.7796 Z" clip-path="url(#clipPath2)" stroke="none"/>
      <path fill="none" d="M602.9888 177.7796 L567.5 177.7796" clip-path="url(#clipPath2)"/>
      <path d="M559.5 177.7796 L571.5 182.7796 L568.5 177.7796 L571.5 172.7796 Z" clip-path="url(#clipPath2)" stroke="none"/>
      <path fill="none" d="M476.5 177.7796 L431.9134 177.7796" clip-path="url(#clipPath2)"/>
      <path d="M423.9134 177.7796 L435.9134 182.7796 L432.9134 177.7796 L435.9134 172.7796 Z" clip-path="url(#clipPath2)" stroke="none"/>
      <path fill="none" d="M383.9246 177.7796 L356.6893 177.7796 L356.6893 177.7796 L349.5 177.7796" clip-path="url(#clipPath2)"/>
      <path d="M349.5 177.7796 L361.5 182.7796 L358.5 177.7796 L361.5 172.7796 Z" clip-path="url(#clipPath2)" stroke="none"/>
      <path fill="none" d="M257.3787 177.7796 L215.3738 177.7796" clip-path="url(#clipPath2)"/>
      <path d="M207.3738 177.7796 L219.3738 182.7796 L216.3738 177.7796 L219.3738 172.7796 Z" clip-path="url(#clipPath2)" stroke="none"/>
      <path fill="none" d="M167.3559 177.7796 L144 177.7796" clip-path="url(#clipPath2)"/>
      <path d="M136 177.7796 L148 182.7796 L145 177.7796 L148 172.7796 Z" clip-path="url(#clipPath2)" stroke="none"/>
    </g>
  </g>
</svg>
