<?xml version="1.0" encoding="UTF-8"?><svg xmlns="http://www.w3.org/2000/svg" xmlns:xlink="http://www.w3.org/1999/xlink" fill-opacity="1" color-rendering="auto" color-interpolation="auto" text-rendering="auto" stroke="black" stroke-linecap="square" width="1377" stroke-miterlimit="10" shape-rendering="auto" stroke-opacity="1" fill="black" stroke-dasharray="none" font-weight="normal" stroke-width="1" height="702" font-family="'Dialog'" font-style="normal" stroke-linejoin="miter" font-size="12px" stroke-dashoffset="0" image-rendering="auto">
  <!--Generated by ySVG 2.5-->
  <defs id="genericDefs"/>
  <g>
    <defs id="defs1">
      <linearGradient x1="457.2657" gradientUnits="userSpaceOnUse" x2="537.2657" y1="235.4094" y2="275.4094" id="linearGradient1" spreadMethod="reflect">
        <stop stop-opacity="1" stop-color="rgb(232,238,247)" offset="0%"/>
        <stop stop-opacity="1" stop-color="rgb(183,201,227)" offset="100%"/>
      </linearGradient>
      <linearGradient x1="457.2657" gradientUnits="userSpaceOnUse" x2="537.2657" y1="70.4094" y2="110.4094" id="linearGradient2" spreadMethod="reflect">
        <stop stop-opacity="1" stop-color="rgb(232,238,247)" offset="0%"/>
        <stop stop-opacity="1" stop-color="rgb(183,201,227)" offset="100%"/>
      </linearGradient>
      <linearGradient x1="202.2657" gradientUnits="userSpaceOnUse" x2="282.2657" y1="235.4094" y2="275.4094" id="linearGradient3" spreadMethod="reflect">
        <stop stop-opacity="1" stop-color="rgb(232,238,247)" offset="0%"/>
        <stop stop-opacity="1" stop-color="rgb(183,201,227)" offset="100%"/>
      </linearGradient>
      <linearGradient x1="147.7657" gradientUnits="userSpaceOnUse" x2="227.7657" y1="543.189" y2="583.189" id="linearGradient4" spreadMethod="reflect">
        <stop stop-opacity="1" stop-color="rgb(232,238,247)" offset="0%"/>
        <stop stop-opacity="1" stop-color="rgb(183,201,227)" offset="100%"/>
      </linearGradient>
      <linearGradient x1="612.7657" gradientUnits="userSpaceOnUse" x2="692.7657" y1="543.189" y2="583.189" id="linearGradient5" spreadMethod="reflect">
        <stop stop-opacity="1" stop-color="rgb(232,238,247)" offset="0%"/>
        <stop stop-opacity="1" stop-color="rgb(183,201,227)" offset="100%"/>
      </linearGradient>
      <linearGradient x1="372.7657" gradientUnits="userSpaceOnUse" x2="452.7657" y1="543.189" y2="583.189" id="linearGradient6" spreadMethod="reflect">
        <stop stop-opacity="1" stop-color="rgb(232,238,247)" offset="0%"/>
        <stop stop-opacity="1" stop-color="rgb(183,201,227)" offset="100%"/>
      </linearGradient>
      <linearGradient x1="372.7657" gradientUnits="userSpaceOnUse" x2="452.7657" y1="393.189" y2="433.189" id="linearGradient7" spreadMethod="reflect">
        <stop stop-opacity="1" stop-color="rgb(232,238,247)" offset="0%"/>
        <stop stop-opacity="1" stop-color="rgb(183,201,227)" offset="100%"/>
      </linearGradient>
      <linearGradient x1="927.7657" gradientUnits="userSpaceOnUse" x2="1007.7657" y1="543.189" y2="583.189" id="linearGradient8" spreadMethod="reflect">
        <stop stop-opacity="1" stop-color="rgb(232,238,247)" offset="0%"/>
        <stop stop-opacity="1" stop-color="rgb(183,201,227)" offset="100%"/>
      </linearGradient>
      <linearGradient x1="927.7657" gradientUnits="userSpaceOnUse" x2="1007.7657" y1="393.189" y2="433.189" id="linearGradient9" spreadMethod="reflect">
        <stop stop-opacity="1" stop-color="rgb(232,238,247)" offset="0%"/>
        <stop stop-opacity="1" stop-color="rgb(183,201,227)" offset="100%"/>
      </linearGradient>
      <linearGradient x1="582.7657" gradientUnits="userSpaceOnUse" x2="662.7657" y1="393.189" y2="433.189" id="linearGradient10" spreadMethod="reflect">
        <stop stop-opacity="1" stop-color="rgb(232,238,247)" offset="0%"/>
        <stop stop-opacity="1" stop-color="rgb(183,201,227)" offset="100%"/>
      </linearGradient>
      <clipPath clipPathUnits="userSpaceOnUse" id="clipPath1">
        <path d="M0 0 L1377 0 L1377 702 L0 702 L0 0 Z"/>
      </clipPath>
      <clipPath clipPathUnits="userSpaceOnUse" id="clipPath2">
        <path d="M9 -43 L1386 -43 L1386 659 L9 659 L9 -43 Z"/>
      </clipPath>
    </defs>
    <g fill="white" text-rendering="geometricPrecision" shape-rendering="geometricPrecision" transform="translate(-9,43)" stroke="white">
      <rect x="9" width="1377" height="702" y="-43" clip-path="url(#clipPath2)" stroke="none"/>
    </g>
    <g fill="rgb(255,204,0)" text-rendering="geometricPrecision" shape-rendering="geometricPrecision" transform="matrix(1,0,0,1,-9,43)" stroke="rgb(255,204,0)">
      <rect x="24.2657" width="136" height="55" y="227.9094" clip-path="url(#clipPath2)" stroke="none"/>
    </g>
    <g text-rendering="geometricPrecision" stroke-miterlimit="1.45" shape-rendering="geometricPrecision" transform="matrix(1,0,0,1,-9,43)" stroke-linecap="butt">
      <rect fill="none" x="24.2657" width="136" height="55" y="227.9094" clip-path="url(#clipPath2)"/>
      <text x="29.6466" xml:space="preserve" y="259.5637" clip-path="url(#clipPath2)" font-family="sans-serif" stroke="none">Despido injustificado</text>
    </g>
    <g fill="rgb(255,204,0)" text-rendering="geometricPrecision" shape-rendering="geometricPrecision" transform="matrix(1,0,0,1,-9,43)" stroke="rgb(255,204,0)">
      <rect x="314.2657" width="96" height="34" y="238.4094" clip-path="url(#clipPath2)" stroke="none"/>
    </g>
    <g text-rendering="geometricPrecision" stroke-miterlimit="1.45" shape-rendering="geometricPrecision" transform="matrix(1,0,0,1,-9,43)" stroke-linecap="butt">
      <rect fill="none" x="314.2657" width="96" height="34" y="238.4094" clip-path="url(#clipPath2)"/>
      <text x="318.3263" xml:space="preserve" y="252.5793" clip-path="url(#clipPath2)" font-family="sans-serif" stroke="none">Fue despedida</text>
      <text x="322.753" xml:space="preserve" y="266.5481" clip-path="url(#clipPath2)" font-family="sans-serif" stroke="none">Ingreso 1960</text>
    </g>
    <g fill="rgb(255,204,0)" text-rendering="geometricPrecision" shape-rendering="geometricPrecision" transform="matrix(1,0,0,1,-9,43)" stroke="rgb(255,204,0)">
      <rect x="612.2657" y="235.9094" clip-path="url(#clipPath2)" width="190" rx="4" ry="4" height="39" stroke="none"/>
    </g>
    <g text-rendering="geometricPrecision" stroke-miterlimit="1.45" shape-rendering="geometricPrecision" transform="matrix(1,0,0,1,-9,43)" stroke-linecap="butt">
      <rect x="612.2657" y="235.9094" clip-path="url(#clipPath2)" fill="none" width="190" rx="4" ry="4" height="39"/>
      <text x="628.3223" xml:space="preserve" y="252.5793" clip-path="url(#clipPath2)" font-family="sans-serif" stroke="none">T1 declara "fue despedida</text>
      <text x="665.0958" xml:space="preserve" y="266.5481" clip-path="url(#clipPath2)" font-family="sans-serif" stroke="none">ingresó 1960"</text>
    </g>
    <g fill="rgb(255,204,0)" text-rendering="geometricPrecision" shape-rendering="geometricPrecision" transform="matrix(1,0,0,1,-9,43)" stroke="rgb(255,204,0)">
      <rect x="582.7657" y="137.9094" clip-path="url(#clipPath2)" width="249" rx="4" ry="4" height="55" stroke="none"/>
    </g>
    <g text-rendering="geometricPrecision" stroke-miterlimit="1.45" shape-rendering="geometricPrecision" transform="matrix(1,0,0,1,-9,43)" stroke-linecap="butt">
      <rect x="582.7657" y="137.9094" clip-path="url(#clipPath2)" fill="none" width="249" rx="4" ry="4" height="55"/>
      <text x="618.5606" xml:space="preserve" y="155.5949" clip-path="url(#clipPath2)" font-family="sans-serif" stroke="none">Las declaraciones de testigos</text>
      <text x="608.128" xml:space="preserve" y="169.5637" clip-path="url(#clipPath2)" font-family="sans-serif" stroke="none">sin sesgos, y respecto de hechos</text>
      <text x="587.9278" xml:space="preserve" y="183.5324" clip-path="url(#clipPath2)" font-family="sans-serif" stroke="none">de periodos prolongados son confiables</text>
    </g>
    <g fill="rgb(255,204,0)" text-rendering="geometricPrecision" shape-rendering="geometricPrecision" transform="matrix(1,0,0,1,-9,43)" stroke="rgb(255,204,0)">
      <rect x="621.7657" y="70.9094" clip-path="url(#clipPath2)" width="171" rx="4" ry="4" height="39" stroke="none"/>
    </g>
    <g text-rendering="geometricPrecision" stroke-miterlimit="1.45" shape-rendering="geometricPrecision" transform="matrix(1,0,0,1,-9,43)" stroke-linecap="butt">
      <rect x="621.7657" y="70.9094" clip-path="url(#clipPath2)" fill="none" width="171" rx="4" ry="4" height="39"/>
      <text x="628.3223" xml:space="preserve" y="87.5793" clip-path="url(#clipPath2)" font-family="sans-serif" stroke="none">T2 declara "fue despedida</text>
      <text x="665.0958" xml:space="preserve" y="101.5481" clip-path="url(#clipPath2)" font-family="sans-serif" stroke="none">ingresó 1960"</text>
    </g>
    <g fill="rgb(255,204,0)" text-rendering="geometricPrecision" shape-rendering="geometricPrecision" transform="matrix(1,0,0,1,-9,43)" stroke="rgb(255,204,0)">
      <rect x="582.7657" y="-27.0906" clip-path="url(#clipPath2)" width="249" rx="4" ry="4" height="55" stroke="none"/>
    </g>
    <g text-rendering="geometricPrecision" stroke-miterlimit="1.45" shape-rendering="geometricPrecision" transform="matrix(1,0,0,1,-9,43)" stroke-linecap="butt">
      <rect x="582.7657" y="-27.0906" clip-path="url(#clipPath2)" fill="none" width="249" rx="4" ry="4" height="55"/>
      <text x="618.5606" xml:space="preserve" y="-9.4051" clip-path="url(#clipPath2)" font-family="sans-serif" stroke="none">Las declaraciones de testigos</text>
      <text x="608.128" xml:space="preserve" y="4.5637" clip-path="url(#clipPath2)" font-family="sans-serif" stroke="none">sin sesgos, y respecto de hechos</text>
      <text x="587.9278" xml:space="preserve" y="18.5324" clip-path="url(#clipPath2)" font-family="sans-serif" stroke="none">de periodos prolongados son confiables</text>
    </g>
    <g fill="url(#linearGradient1)" text-rendering="geometricPrecision" shape-rendering="geometricPrecision" transform="matrix(1,0,0,1,-9,43)" stroke="url(#linearGradient1)">
      <circle r="20" clip-path="url(#clipPath2)" cx="497.2657" cy="255.4094" stroke="none"/>
    </g>
    <g text-rendering="geometricPrecision" stroke-miterlimit="1.45" shape-rendering="geometricPrecision" transform="matrix(1,0,0,1,-9,43)" stroke-linecap="butt">
      <circle fill="none" r="20" clip-path="url(#clipPath2)" cx="497.2657" cy="255.4094"/>
      <text x="486.3453" font-size="15px" y="260.6023" clip-path="url(#clipPath2)" font-family="sans-serif" stroke="none" font-weight="bold" xml:space="preserve">AT</text>
    </g>
    <g fill="url(#linearGradient2)" text-rendering="geometricPrecision" shape-rendering="geometricPrecision" transform="matrix(1,0,0,1,-9,43)" stroke="url(#linearGradient2)">
      <circle r="20" clip-path="url(#clipPath2)" cx="497.2657" cy="90.4094" stroke="none"/>
    </g>
    <g text-rendering="geometricPrecision" stroke-miterlimit="1.45" shape-rendering="geometricPrecision" transform="matrix(1,0,0,1,-9,43)" stroke-linecap="butt">
      <circle fill="none" r="20" clip-path="url(#clipPath2)" cx="497.2657" cy="90.4094"/>
      <text x="486.3453" font-size="15px" y="95.6023" clip-path="url(#clipPath2)" font-family="sans-serif" stroke="none" font-weight="bold" xml:space="preserve">AT</text>
    </g>
    <g fill="url(#linearGradient3)" text-rendering="geometricPrecision" shape-rendering="geometricPrecision" transform="matrix(1,0,0,1,-9,43)" stroke="url(#linearGradient3)">
      <circle r="20" clip-path="url(#clipPath2)" cx="242.2657" cy="255.4094" stroke="none"/>
    </g>
    <g text-rendering="geometricPrecision" stroke-miterlimit="1.45" shape-rendering="geometricPrecision" transform="matrix(1,0,0,1,-9,43)" stroke-linecap="butt">
      <circle fill="none" r="20" clip-path="url(#clipPath2)" cx="242.2657" cy="255.4094"/>
      <text x="229.6974" font-size="30px" y="265.7951" clip-path="url(#clipPath2)" font-family="sans-serif" stroke="none" font-weight="bold" xml:space="preserve">+</text>
    </g>
    <g fill="rgb(255,255,153)" text-rendering="geometricPrecision" shape-rendering="geometricPrecision" transform="matrix(1,0,0,1,-9,43)" stroke="rgb(255,255,153)">
      <rect x="251.2657" width="83" height="40" y="543.189" clip-path="url(#clipPath2)" stroke="none"/>
    </g>
    <g text-rendering="geometricPrecision" stroke-miterlimit="1.45" shape-rendering="geometricPrecision" transform="matrix(1,0,0,1,-9,43)" stroke-linecap="butt">
      <rect fill="none" x="251.2657" width="83" height="40" y="543.189" clip-path="url(#clipPath2)"/>
      <text x="264.8546" xml:space="preserve" y="567.3433" clip-path="url(#clipPath2)" font-family="sans-serif" stroke="none">Renuncia</text>
    </g>
    <g fill="url(#linearGradient4)" text-rendering="geometricPrecision" shape-rendering="geometricPrecision" transform="matrix(1,0,0,1,-9,43)" stroke="url(#linearGradient4)">
      <circle r="20" clip-path="url(#clipPath2)" cx="187.7657" cy="563.189" stroke="none"/>
    </g>
    <g text-rendering="geometricPrecision" stroke-miterlimit="1.45" shape-rendering="geometricPrecision" transform="matrix(1,0,0,1,-9,43)" stroke-linecap="butt">
      <circle fill="none" r="20" clip-path="url(#clipPath2)" cx="187.7657" cy="563.189"/>
      <text x="179.4649" font-size="40px" y="577.0366" clip-path="url(#clipPath2)" font-family="sans-serif" stroke="none" font-weight="bold" xml:space="preserve">-</text>
    </g>
    <g fill="url(#linearGradient5)" text-rendering="geometricPrecision" shape-rendering="geometricPrecision" transform="matrix(1,0,0,1,-9,43)" stroke="url(#linearGradient5)">
      <circle r="20" clip-path="url(#clipPath2)" cx="652.7657" cy="563.189" stroke="none"/>
    </g>
    <g text-rendering="geometricPrecision" stroke-miterlimit="1.45" shape-rendering="geometricPrecision" transform="matrix(1,0,0,1,-9,43)" stroke-linecap="butt">
      <circle fill="none" r="20" clip-path="url(#clipPath2)" cx="652.7657" cy="563.189"/>
      <text x="640.1973" font-size="30px" y="573.5747" clip-path="url(#clipPath2)" font-family="sans-serif" stroke="none" font-weight="bold" xml:space="preserve">+</text>
    </g>
    <g fill="rgb(255,255,153)" text-rendering="geometricPrecision" shape-rendering="geometricPrecision" transform="matrix(1,0,0,1,-9,43)" stroke="rgb(255,255,153)">
      <rect x="741.5157" width="242.5" height="47.5" y="464.439" clip-path="url(#clipPath2)" stroke="none"/>
    </g>
    <g text-rendering="geometricPrecision" stroke-miterlimit="1.45" shape-rendering="geometricPrecision" transform="matrix(1,0,0,1,-9,43)" stroke-linecap="butt">
      <rect fill="none" x="741.5157" width="242.5" height="47.5" y="464.439" clip-path="url(#clipPath2)"/>
      <text x="777.4971" xml:space="preserve" y="485.3589" clip-path="url(#clipPath2)" font-family="sans-serif" stroke="none">La firma normalmente avala</text>
      <text x="749.8585" xml:space="preserve" y="499.3277" clip-path="url(#clipPath2)" font-family="sans-serif" stroke="none">el contenido del documento del autor</text>
    </g>
    <g fill="rgb(255,255,153)" text-rendering="geometricPrecision" shape-rendering="geometricPrecision" transform="matrix(1,0,0,1,-9,43)" stroke="rgb(255,255,153)">
      <rect x="740.2657" width="155" height="47.5" y="539.439" clip-path="url(#clipPath2)" stroke="none"/>
    </g>
    <g text-rendering="geometricPrecision" stroke-miterlimit="1.45" shape-rendering="geometricPrecision" transform="matrix(1,0,0,1,-9,43)" stroke-linecap="butt">
      <rect fill="none" x="740.2657" width="155" height="47.5" y="539.439" clip-path="url(#clipPath2)"/>
      <text x="767.6885" xml:space="preserve" y="560.3589" clip-path="url(#clipPath2)" font-family="sans-serif" stroke="none">La firma es de la</text>
      <text x="757.9415" xml:space="preserve" y="574.3276" clip-path="url(#clipPath2)" font-family="sans-serif" stroke="none">demandante/autora</text>
    </g>
    <g fill="rgb(255,255,153)" text-rendering="geometricPrecision" shape-rendering="geometricPrecision" transform="matrix(1,0,0,1,-9,43)" stroke="rgb(255,255,153)">
      <rect x="484.7657" width="96" height="81.5625" y="522.4077" clip-path="url(#clipPath2)" stroke="none"/>
    </g>
    <g text-rendering="geometricPrecision" stroke-miterlimit="1.45" shape-rendering="geometricPrecision" transform="matrix(1,0,0,1,-9,43)" stroke-linecap="butt">
      <rect fill="none" x="484.7657" width="96" height="81.5625" y="522.4077" clip-path="url(#clipPath2)"/>
      <text x="504.8604" xml:space="preserve" y="560.3589" clip-path="url(#clipPath2)" font-family="sans-serif" stroke="none">Renunció</text>
      <text x="493.253" xml:space="preserve" y="574.3276" clip-path="url(#clipPath2)" font-family="sans-serif" stroke="none">Ingresó 2011</text>
    </g>
    <g fill="url(#linearGradient6)" text-rendering="geometricPrecision" shape-rendering="geometricPrecision" transform="matrix(1,0,0,1,-9,43)" stroke="url(#linearGradient6)">
      <circle r="20" clip-path="url(#clipPath2)" cx="412.7657" cy="563.189" stroke="none"/>
    </g>
    <g text-rendering="geometricPrecision" stroke-miterlimit="1.45" shape-rendering="geometricPrecision" transform="matrix(1,0,0,1,-9,43)" stroke-linecap="butt">
      <circle fill="none" r="20" clip-path="url(#clipPath2)" cx="412.7657" cy="563.189"/>
      <text x="400.1974" font-size="30px" y="573.5747" clip-path="url(#clipPath2)" font-family="sans-serif" stroke="none" font-weight="bold" xml:space="preserve">+</text>
    </g>
    <g fill="url(#linearGradient7)" text-rendering="geometricPrecision" shape-rendering="geometricPrecision" transform="matrix(1,0,0,1,-9,43)" stroke="url(#linearGradient7)">
      <circle r="20" clip-path="url(#clipPath2)" cx="412.7657" cy="413.189" stroke="none"/>
    </g>
    <g text-rendering="geometricPrecision" stroke-miterlimit="1.45" shape-rendering="geometricPrecision" transform="matrix(1,0,0,1,-9,43)" stroke-linecap="butt">
      <circle fill="none" r="20" clip-path="url(#clipPath2)" cx="412.7657" cy="413.189"/>
      <text x="404.4649" font-size="40px" y="427.0367" clip-path="url(#clipPath2)" font-family="sans-serif" stroke="none" font-weight="bold" xml:space="preserve">-</text>
    </g>
    <g fill="url(#linearGradient8)" text-rendering="geometricPrecision" shape-rendering="geometricPrecision" transform="matrix(1,0,0,1,-9,43)" stroke="url(#linearGradient8)">
      <circle r="20" clip-path="url(#clipPath2)" cx="967.7657" cy="563.189" stroke="none"/>
    </g>
    <g text-rendering="geometricPrecision" stroke-miterlimit="1.45" shape-rendering="geometricPrecision" transform="matrix(1,0,0,1,-9,43)" stroke-linecap="butt">
      <circle fill="none" r="20" clip-path="url(#clipPath2)" cx="967.7657" cy="563.189"/>
      <text x="956.8599" font-size="15px" y="568.3818" clip-path="url(#clipPath2)" font-family="sans-serif" stroke="none" font-weight="bold" xml:space="preserve">EX</text>
    </g>
    <g fill="rgb(255,255,153)" text-rendering="geometricPrecision" shape-rendering="geometricPrecision" transform="matrix(1,0,0,1,-9,43)" stroke="rgb(255,255,153)">
      <rect x="1077.3151" y="613.189" clip-path="url(#clipPath2)" width="96" rx="4" ry="4" height="30" stroke="none"/>
    </g>
    <g text-rendering="geometricPrecision" stroke-miterlimit="1.45" shape-rendering="geometricPrecision" transform="matrix(1,0,0,1,-9,43)" stroke-linecap="butt">
      <rect x="1077.3151" y="613.189" clip-path="url(#clipPath2)" fill="none" width="96" rx="4" ry="4" height="30"/>
      <text x="1089.4908" xml:space="preserve" y="632.3433" clip-path="url(#clipPath2)" font-family="sans-serif" stroke="none">Grafoscopía</text>
    </g>
    <g fill="rgb(255,255,153)" text-rendering="geometricPrecision" shape-rendering="geometricPrecision" transform="matrix(1,0,0,1,-9,43)" stroke="rgb(255,255,153)">
      <rect x="1062.2164" y="543.189" clip-path="url(#clipPath2)" width="111.0987" rx="4" ry="4" height="40" stroke="none"/>
    </g>
    <g text-rendering="geometricPrecision" stroke-miterlimit="1.45" shape-rendering="geometricPrecision" transform="matrix(1,0,0,1,-9,43)" stroke-linecap="butt">
      <rect x="1062.2164" y="543.189" clip-path="url(#clipPath2)" fill="none" width="111.0987" rx="4" ry="4" height="40"/>
      <text x="1063.7628" xml:space="preserve" y="567.3433" clip-path="url(#clipPath2)" font-family="sans-serif" stroke="none">Documentoscopía</text>
    </g>
    <g fill="rgb(255,255,153)" text-rendering="geometricPrecision" shape-rendering="geometricPrecision" transform="matrix(1,0,0,1,-9,43)" stroke="rgb(255,255,153)">
      <rect x="1077.7657" y="473.189" clip-path="url(#clipPath2)" width="80" rx="4" ry="4" height="30" stroke="none"/>
    </g>
    <g text-rendering="geometricPrecision" stroke-miterlimit="1.45" shape-rendering="geometricPrecision" transform="matrix(1,0,0,1,-9,43)" stroke-linecap="butt">
      <rect x="1077.7657" y="473.189" clip-path="url(#clipPath2)" fill="none" width="80" rx="4" ry="4" height="30"/>
      <text x="1086.6993" xml:space="preserve" y="492.3433" clip-path="url(#clipPath2)" font-family="sans-serif" stroke="none">Grafología</text>
    </g>
    <g fill="rgb(255,204,0)" text-rendering="geometricPrecision" shape-rendering="geometricPrecision" transform="matrix(1,0,0,1,-9,43)" stroke="rgb(255,204,0)">
      <rect x="476.2657" width="83" height="40" y="393.189" clip-path="url(#clipPath2)" stroke="none"/>
    </g>
    <g text-rendering="geometricPrecision" stroke-miterlimit="1.45" shape-rendering="geometricPrecision" transform="matrix(1,0,0,1,-9,43)" stroke-linecap="butt">
      <rect fill="none" x="476.2657" width="83" height="40" y="393.189" clip-path="url(#clipPath2)"/>
      <text x="481.4962" xml:space="preserve" y="417.3433" clip-path="url(#clipPath2)" font-family="sans-serif" stroke="none">No renunció</text>
    </g>
    <g fill="url(#linearGradient9)" text-rendering="geometricPrecision" shape-rendering="geometricPrecision" transform="matrix(1,0,0,1,-9,43)" stroke="url(#linearGradient9)">
      <circle r="20" clip-path="url(#clipPath2)" cx="967.7657" cy="413.189" stroke="none"/>
    </g>
    <g text-rendering="geometricPrecision" stroke-miterlimit="1.45" shape-rendering="geometricPrecision" transform="matrix(1,0,0,1,-9,43)" stroke-linecap="butt">
      <circle fill="none" r="20" clip-path="url(#clipPath2)" cx="967.7657" cy="413.189"/>
      <text x="955.1973" font-size="30px" y="423.5747" clip-path="url(#clipPath2)" font-family="sans-serif" stroke="none" font-weight="bold" xml:space="preserve">+</text>
    </g>
    <g fill="rgb(255,204,0)" text-rendering="geometricPrecision" shape-rendering="geometricPrecision" transform="matrix(1,0,0,1,-9,43)" stroke="rgb(255,204,0)">
      <rect x="712.2723" width="180.9868" height="55" y="385.689" clip-path="url(#clipPath2)" stroke="none"/>
    </g>
    <g text-rendering="geometricPrecision" stroke-miterlimit="1.45" shape-rendering="geometricPrecision" transform="matrix(1,0,0,1,-9,43)" stroke-linecap="butt">
      <rect fill="none" x="712.2723" width="180.9868" height="55" y="385.689" clip-path="url(#clipPath2)"/>
      <text x="730.3262" xml:space="preserve" y="410.3589" clip-path="url(#clipPath2)" font-family="sans-serif" stroke="none">La demandante no es la</text>
      <text x="736.1944" xml:space="preserve" y="424.3277" clip-path="url(#clipPath2)" font-family="sans-serif" stroke="none">autora del documento</text>
    </g>
    <g fill="rgb(255,204,0)" text-rendering="geometricPrecision" shape-rendering="geometricPrecision" transform="matrix(1,0,0,1,-9,43)" stroke="rgb(255,204,0)">
      <rect x="1044.8216" width="325.8882" height="115.5592" y="235.4094" clip-path="url(#clipPath2)" stroke="none"/>
    </g>
    <g text-rendering="geometricPrecision" stroke-miterlimit="1.45" shape-rendering="geometricPrecision" transform="matrix(1,0,0,1,-9,43)" stroke-linecap="butt">
      <rect fill="none" x="1044.8216" width="325.8882" height="115.5592" y="235.4094" clip-path="url(#clipPath2)"/>
      <text x="1103.3693" xml:space="preserve" y="255.437" clip-path="url(#clipPath2)" font-family="sans-serif" stroke="none">Las personas mayores de 80 años,</text>
      <text x="1115.3165" xml:space="preserve" y="269.4058" clip-path="url(#clipPath2)" font-family="sans-serif" stroke="none">en situación de vulnerabilidad,</text>
      <text x="1120.1564" xml:space="preserve" y="283.3745" clip-path="url(#clipPath2)" font-family="sans-serif" stroke="none">no habituada a la tecnología,</text>
      <text x="1097.2697" xml:space="preserve" y="297.3433" clip-path="url(#clipPath2)" font-family="sans-serif" stroke="none">mayormente no manejan programas</text>
      <text x="1053.254" xml:space="preserve" y="311.312" clip-path="url(#clipPath2)" font-family="sans-serif" stroke="none">informáticos, por lo que no son las autoras directas</text>
      <text x="1127.6183" xml:space="preserve" y="325.2808" clip-path="url(#clipPath2)" font-family="sans-serif" stroke="none">de los documentos hechos</text>
      <text x="1156.379" xml:space="preserve" y="339.2495" clip-path="url(#clipPath2)" font-family="sans-serif" stroke="none">en computadora.</text>
    </g>
    <g fill="rgb(255,204,0)" text-rendering="geometricPrecision" shape-rendering="geometricPrecision" transform="matrix(1,0,0,1,-9,43)" stroke="rgb(255,204,0)">
      <rect x="1086.5157" width="242.5" height="34" y="396.189" clip-path="url(#clipPath2)" stroke="none"/>
    </g>
    <g text-rendering="geometricPrecision" stroke-miterlimit="1.45" shape-rendering="geometricPrecision" transform="matrix(1,0,0,1,-9,43)" stroke-linecap="butt">
      <rect fill="none" x="1086.5157" width="242.5" height="34" y="396.189" clip-path="url(#clipPath2)"/>
      <text x="1126.2853" xml:space="preserve" y="410.3589" clip-path="url(#clipPath2)" font-family="sans-serif" stroke="none">La demandante cumple las</text>
      <text x="1131.4034" xml:space="preserve" y="424.3277" clip-path="url(#clipPath2)" font-family="sans-serif" stroke="none">características anteriores</text>
    </g>
    <g fill="rgb(255,204,0)" text-rendering="geometricPrecision" shape-rendering="geometricPrecision" transform="matrix(1,0,0,1,-9,43)" stroke="rgb(255,204,0)">
      <rect x="710.2657" width="155" height="47.5" y="314.439" clip-path="url(#clipPath2)" stroke="none"/>
    </g>
    <g text-rendering="geometricPrecision" stroke-miterlimit="1.45" shape-rendering="geometricPrecision" transform="matrix(1,0,0,1,-9,43)" stroke-linecap="butt">
      <rect fill="none" x="710.2657" width="155" height="47.5" y="314.439" clip-path="url(#clipPath2)"/>
      <text x="716.5977" xml:space="preserve" y="335.3589" clip-path="url(#clipPath2)" font-family="sans-serif" stroke="none">El contenido de la carta</text>
      <text x="728.3516" xml:space="preserve" y="349.3277" clip-path="url(#clipPath2)" font-family="sans-serif" stroke="none">no vale como cierto</text>
    </g>
    <g fill="url(#linearGradient10)" text-rendering="geometricPrecision" shape-rendering="geometricPrecision" transform="matrix(1,0,0,1,-9,43)" stroke="url(#linearGradient10)">
      <circle r="20" clip-path="url(#clipPath2)" cx="622.7657" cy="413.189" stroke="none"/>
    </g>
    <g text-rendering="geometricPrecision" stroke-miterlimit="1.45" shape-rendering="geometricPrecision" transform="matrix(1,0,0,1,-9,43)" stroke-linecap="butt">
      <circle fill="none" r="20" clip-path="url(#clipPath2)" cx="622.7657" cy="413.189"/>
      <text x="610.1973" font-size="30px" y="423.5747" clip-path="url(#clipPath2)" font-family="sans-serif" stroke="none" font-weight="bold" xml:space="preserve">+</text>
    </g>
    <g text-rendering="geometricPrecision" stroke-miterlimit="1.45" shape-rendering="geometricPrecision" transform="matrix(1,0,0,1,-9,43)" stroke-linecap="butt">
      <path fill="none" d="M612.2193 255.4094 L528.2808 255.4094" clip-path="url(#clipPath2)"/>
      <path d="M517.2808 255.4094 L529.2808 261.4094 L529.2808 249.4094 Z" clip-path="url(#clipPath2)" stroke="none"/>
    </g>
    <g text-rendering="geometricPrecision" stroke-miterlimit="1.45" shape-rendering="geometricPrecision" transform="matrix(1,0,0,1,-9,43)" stroke-linecap="butt">
      <path fill="none" d="M582.7159 165.4094 L567.2657 165.4094 L562.8907 166.0344 L559.7657 167.9094 L557.8907 171.0344 L557.2657 175.4094 L557.2657 230.4094 L556.6407 234.7844 L554.7657 237.9094 L551.6407 239.7844 L547.2657 240.4094 L521.5302 240.4094" clip-path="url(#clipPath2)"/>
      <path d="M510.5302 240.4094 L522.5302 246.4094 L522.5302 234.4094 Z" clip-path="url(#clipPath2)" stroke="none"/>
    </g>
    <g text-rendering="geometricPrecision" stroke-miterlimit="1.45" shape-rendering="geometricPrecision" transform="matrix(1,0,0,1,-9,43)" stroke-linecap="butt">
      <path fill="none" d="M477.2642 255.4094 L421.2657 255.4094" clip-path="url(#clipPath2)"/>
      <path d="M410.2657 255.4094 L422.2657 261.4094 L422.2657 249.4094 Z" clip-path="url(#clipPath2)" stroke="none"/>
    </g>
    <g text-rendering="geometricPrecision" stroke-miterlimit="1.45" shape-rendering="geometricPrecision" transform="matrix(1,0,0,1,-9,43)" stroke-linecap="butt">
      <path fill="none" d="M621.7402 90.4094 L528.2599 90.4094" clip-path="url(#clipPath2)"/>
      <path d="M517.2599 90.4094 L529.2599 96.4094 L529.2599 84.4094 Z" clip-path="url(#clipPath2)" stroke="none"/>
    </g>
    <g text-rendering="geometricPrecision" stroke-miterlimit="1.45" shape-rendering="geometricPrecision" transform="matrix(1,0,0,1,-9,43)" stroke-linecap="butt">
      <path fill="none" d="M582.7159 0.4094 L567.2657 0.4094 L562.8907 1.0344 L559.7657 2.9094 L557.8907 6.0344 L557.2657 10.4094 L557.2657 65.4094 L556.6407 69.7844 L554.7657 72.9094 L551.6407 74.7844 L547.2657 75.4094 L521.5302 75.4094" clip-path="url(#clipPath2)"/>
      <path d="M510.5302 75.4094 L522.5302 81.4094 L522.5302 69.4094 Z" clip-path="url(#clipPath2)" stroke="none"/>
    </g>
    <g text-rendering="geometricPrecision" stroke-miterlimit="1.45" shape-rendering="geometricPrecision" transform="matrix(1,0,0,1,-9,43)" stroke-linecap="butt">
      <path fill="none" d="M477.2579 90.4094 L447.2657 90.4094 L442.8907 91.0344 L439.7657 92.9094 L437.8907 96.0344 L437.2657 100.4094 L437.2657 237.9094 L436.7657 242.2844 L435.2657 245.4094 L432.7657 247.2844 L429.2657 247.9094 L421.2657 247.9094" clip-path="url(#clipPath2)"/>
      <path d="M410.2657 247.9094 L422.2657 253.9094 L422.2657 241.9094 Z" clip-path="url(#clipPath2)" stroke="none"/>
    </g>
    <g text-rendering="geometricPrecision" stroke-miterlimit="1.45" shape-rendering="geometricPrecision" transform="matrix(1,0,0,1,-9,43)" stroke-linecap="butt">
      <path fill="none" d="M314.2403 255.4094 L273.2599 255.4094" clip-path="url(#clipPath2)"/>
      <path d="M262.2599 255.4094 L274.2599 261.4094 L274.2599 249.4094 Z" clip-path="url(#clipPath2)" stroke="none"/>
    </g>
    <g text-rendering="geometricPrecision" stroke-miterlimit="1.45" shape-rendering="geometricPrecision" transform="matrix(1,0,0,1,-9,43)" stroke-linecap="butt">
      <path fill="none" d="M222.2667 255.4094 L171.2657 255.4094" clip-path="url(#clipPath2)"/>
      <path d="M160.2657 255.4094 L172.2657 261.4094 L172.2657 249.4094 Z" clip-path="url(#clipPath2)" stroke="none"/>
    </g>
    <g text-rendering="geometricPrecision" stroke-miterlimit="1.45" shape-rendering="geometricPrecision" transform="matrix(1,0,0,1,-9,43)" stroke-linecap="butt">
      <path fill="none" d="M251.2232 563.189 L218.7769 563.189" clip-path="url(#clipPath2)"/>
      <path d="M207.7769 563.189 L219.7769 569.189 L219.7769 557.189 Z" clip-path="url(#clipPath2)" stroke="none"/>
      <path fill="none" d="M167.7601 563.189 L92.2657 563.189 L92.2657 293.924" clip-path="url(#clipPath2)"/>
      <path d="M92.2657 282.924 L86.2657 294.924 L98.2657 294.924 Z" clip-path="url(#clipPath2)" stroke="none"/>
      <path fill="none" d="M741.4876 488.189 L712.7657 488.189 L712.7657 548.189 L674.0302 548.189" clip-path="url(#clipPath2)"/>
      <path d="M666.0302 548.189 L678.0302 553.189 L675.0302 548.189 L678.0302 543.189 Z" clip-path="url(#clipPath2)" stroke="none"/>
      <path fill="none" d="M740.2327 563.189 L680.7674 563.189" clip-path="url(#clipPath2)"/>
      <path d="M672.7674 563.189 L684.7674 568.189 L681.7674 563.189 L684.7674 558.189 Z" clip-path="url(#clipPath2)" stroke="none"/>
      <path fill="none" d="M632.7715 563.189 L588.7657 563.189" clip-path="url(#clipPath2)"/>
      <path d="M580.7657 563.189 L592.7657 568.189 L589.7657 563.189 L592.7657 558.189 Z" clip-path="url(#clipPath2)" stroke="none"/>
    </g>
    <g text-rendering="geometricPrecision" stroke-miterlimit="1.45" shape-rendering="geometricPrecision" transform="matrix(1,0,0,1,-9,43)" stroke-linecap="butt">
      <path fill="none" d="M484.7403 563.189 L443.7599 563.189" clip-path="url(#clipPath2)"/>
      <path d="M432.7599 563.189 L444.7599 569.189 L444.7599 557.189 Z" clip-path="url(#clipPath2)" stroke="none"/>
    </g>
    <g text-rendering="geometricPrecision" stroke-miterlimit="1.45" shape-rendering="geometricPrecision" transform="matrix(1,0,0,1,-9,43)" stroke-linecap="butt">
      <path fill="none" d="M392.7684 563.189 L345.2657 563.189" clip-path="url(#clipPath2)"/>
      <path d="M334.2657 563.189 L346.2657 569.189 L346.2657 557.189 Z" clip-path="url(#clipPath2)" stroke="none"/>
    </g>
    <g text-rendering="geometricPrecision" stroke-miterlimit="1.45" shape-rendering="geometricPrecision" transform="matrix(1,0,0,1,-9,43)" stroke-linecap="butt">
      <path fill="none" d="M392.7579 413.189 L352.7657 413.189 L352.7657 548.189 L342.2657 548.189" clip-path="url(#clipPath2)"/>
      <path d="M334.2657 548.189 L346.2657 553.189 L343.2657 548.189 L346.2657 543.189 Z" clip-path="url(#clipPath2)" stroke="none"/>
      <path fill="none" d="M947.7713 563.189 L903.2657 563.189" clip-path="url(#clipPath2)"/>
      <path d="M895.2657 563.189 L907.2657 568.189 L904.2657 563.189 L907.2657 558.189 Z" clip-path="url(#clipPath2)" stroke="none"/>
      <path fill="none" d="M1077.2667 628.189 L1027.7657 628.189 L1027.7657 578.189 L989.0302 578.189" clip-path="url(#clipPath2)"/>
      <path d="M981.0302 578.189 L993.0302 583.189 L990.0302 578.189 L993.0302 573.189 Z" clip-path="url(#clipPath2)" stroke="none"/>
      <path fill="none" d="M1062.1801 563.189 L995.7708 563.189" clip-path="url(#clipPath2)"/>
      <path d="M987.7708 563.189 L999.7708 568.189 L996.7708 563.189 L999.7708 558.189 Z" clip-path="url(#clipPath2)" stroke="none"/>
      <path fill="none" d="M1077.7169 488.189 L1027.7657 488.189 L1027.7657 548.189 L989.0302 548.189" clip-path="url(#clipPath2)"/>
      <path d="M981.0302 548.189 L993.0302 553.189 L990.0302 548.189 L993.0302 543.189 Z" clip-path="url(#clipPath2)" stroke="none"/>
      <path fill="none" d="M476.2232 413.189 L440.7769 413.189" clip-path="url(#clipPath2)"/>
      <path d="M432.7769 413.189 L444.7769 418.189 L441.7769 413.189 L444.7769 408.189 Z" clip-path="url(#clipPath2)" stroke="none"/>
      <path fill="none" d="M947.7703 413.189 L901.2592 413.189" clip-path="url(#clipPath2)"/>
      <path d="M893.2592 413.189 L905.2592 418.189 L902.2592 413.189 L905.2592 408.189 Z" clip-path="url(#clipPath2)" stroke="none"/>
      <path fill="none" d="M1044.7883 293.189 L1027.7657 293.189 L1027.7657 398.189 L989.0302 398.189" clip-path="url(#clipPath2)"/>
      <path d="M981.0302 398.189 L993.0302 403.189 L990.0302 398.189 L993.0302 393.189 Z" clip-path="url(#clipPath2)" stroke="none"/>
      <path fill="none" d="M1086.4675 413.189 L995.7827 413.189" clip-path="url(#clipPath2)"/>
      <path d="M987.7827 413.189 L999.7827 418.189 L996.7827 413.189 L999.7827 408.189 Z" clip-path="url(#clipPath2)" stroke="none"/>
      <path fill="none" d="M712.2383 413.189 L650.7969 413.189" clip-path="url(#clipPath2)"/>
      <path d="M642.7969 413.189 L654.7969 418.189 L651.7969 413.189 L654.7969 408.189 Z" clip-path="url(#clipPath2)" stroke="none"/>
      <path fill="none" d="M710.2388 338.189 L682.7657 338.189 L682.7657 398.189 L644.0302 398.189" clip-path="url(#clipPath2)"/>
      <path d="M636.0302 398.189 L648.0302 403.189 L645.0302 398.189 L648.0302 393.189 Z" clip-path="url(#clipPath2)" stroke="none"/>
      <path fill="none" d="M602.7545 413.189 L567.2657 413.189" clip-path="url(#clipPath2)"/>
      <path d="M559.2657 413.189 L571.2657 418.189 L568.2657 413.189 L571.2657 408.189 Z" clip-path="url(#clipPath2)" stroke="none"/>
    </g>
  </g>
</svg>
